<svg xmlns="http://www.w3.org/2000/svg" viewBox="0 0 760 620" role="img" aria-labelledby="title desc">
  <title id="title">XingAI Decision Agent light preview</title>
  <desc id="desc">An investment goal moves through context, research, and risk checks to a human-reviewed decision.</desc>
  <rect width="760" height="620" rx="34" fill="#fffdf8"/>
  <rect x="24" y="24" width="712" height="572" rx="24" fill="#f5f5ef" stroke="#cdd7cf" stroke-width="2"/>
  <circle cx="58" cy="60" r="7" fill="#f4764d"/>
  <text x="82" y="66" fill="#64706b" font-family="monospace" font-size="15" font-weight="700">DECISION RUN / VERIFIED CACHE</text>
  <rect x="54" y="104" width="652" height="98" rx="12" fill="#19201e"/>
  <text x="78" y="133" fill="#8ba19a" font-family="monospace" font-size="12">OUTCOME</text>
  <text x="78" y="169" fill="#fffdf8" font-family="Arial, sans-serif" font-size="22" font-weight="700">Allocate $500 with moderate risk.</text>
  <path d="M114 250H635" stroke="#cdd7cf" stroke-width="3"/>
  <g font-family="Arial, sans-serif" font-weight="700" font-size="16" text-anchor="middle">
    <circle cx="116" cy="250" r="24" fill="#e6f3ee" stroke="#278f81" stroke-width="3"/><text x="116" y="256" fill="#1b655c">1</text>
    <circle cx="288" cy="250" r="24" fill="#e6f3ee" stroke="#278f81" stroke-width="3"/><text x="288" y="256" fill="#1b655c">2</text>
    <circle cx="460" cy="250" r="24" fill="#e6f3ee" stroke="#278f81" stroke-width="3"/><text x="460" y="256" fill="#1b655c">3</text>
    <circle cx="634" cy="250" r="24" fill="#fee9df" stroke="#f4764d" stroke-width="3"/><text x="634" y="256" fill="#b33f20">4</text>
  </g>
  <g fill="#38413e" font-family="Arial, sans-serif" font-size="13" font-weight="700" text-anchor="middle">
    <text x="116" y="297">CONTEXT</text><text x="288" y="297">RESEARCH</text><text x="460" y="297">RISK</text><text x="634" y="297">DECISION</text>
  </g>
  <rect x="54" y="342" width="652" height="184" rx="16" fill="#ffffff" stroke="#cdd7cf" stroke-width="2"/>
  <rect x="76" y="366" width="5" height="66" rx="2.5" fill="#f4764d"/>
  <text x="98" y="386" fill="#7a817e" font-family="monospace" font-size="11" font-weight="700">RECOMMENDED DECISION</text>
  <text x="98" y="418" fill="#19201e" font-family="Arial, sans-serif" font-size="18" font-weight="700">Build the core, keep optionality.</text>
  <rect x="76" y="462" width="190" height="42" rx="8" fill="#e6f3ee"/>
  <text x="96" y="488" fill="#1b655c" font-family="Arial, sans-serif" font-size="13" font-weight="700"> HUMAN REVIEW</text>
  <text x="574" y="489" fill="#278f81" font-family="monospace" font-size="22" font-weight="700">78%</text>
  <circle cx="674" cy="558" r="12" fill="#45b4a6"/>
</svg>
