<?xml version="1.0" encoding="UTF-8"?>
<svg xmlns="http://www.w3.org/2000/svg" viewBox="0 0 1536 1024" width="1536" height="1024" role="img" aria-labelledby="title desc">
  <title id="title">ShopRadar dark preview</title>
  <desc id="desc">A five-axis ShopRadar chart with neon green highlight on a dark copper card.</desc>
  <rect width="1536" height="1024" fill="#16120e"/>
  <rect x="72" y="56" width="1392" height="912" rx="36" fill="#221c16" stroke="#3a2e22" stroke-width="3"/>
  <text x="116" y="140" fill="#4ade80" font-family="ui-monospace, Menlo, monospace" font-size="24" font-weight="700">SAMPLE RADAR</text>
  <text x="116" y="220" fill="#f6efe4" font-family="ui-sans-serif, system-ui, sans-serif" font-size="48" font-weight="800">LumaFold Lantern</text>
  <text x="1410" y="220" fill="#4ade80" font-family="ui-sans-serif, system-ui, sans-serif" font-size="56" font-weight="800" text-anchor="end">78</text>
  <g fill="none" stroke="#3a2e22" stroke-width="2">
    <path d="M768 400 L947 530 L878 742 L658 742 L589 530 Z"/>
    <path d="M768 480 L858 545 L823 651 L713 651 L678 545 Z"/>
    <line x1="768" y1="560" x2="768" y2="400"/>
    <line x1="768" y1="560" x2="947" y2="530"/>
    <line x1="768" y1="560" x2="878" y2="742"/>
    <line x1="768" y1="560" x2="658" y2="742"/>
    <line x1="768" y1="560" x2="589" y2="530"/>
  </g>
  <path d="M768 429 L883 541 L849 695 L674 711 L607 509 Z" fill="#4ade80" fill-opacity="0.16" stroke="#4ade80" stroke-width="5" stroke-linejoin="round"/>
  <g fill="#221c16" stroke="#4ade80" stroke-width="4">
    <circle cx="768" cy="429" r="8"/>
    <circle cx="883" cy="541" r="8"/>
    <circle cx="849" cy="695" r="8"/>
    <circle cx="674" cy="711" r="8"/>
    <circle cx="607" cy="509" r="8"/>
  </g>
  <g font-family="ui-sans-serif, system-ui, sans-serif" text-anchor="middle">
    <text x="768" y="318" fill="#c4b094" font-size="24" font-weight="700">Trend</text>
    <text x="768" y="352" fill="#4ade80" font-size="32" font-weight="800">82</text>
    <text x="1070" y="500" fill="#c4b094" font-size="24" font-weight="700">Rivals</text>
    <text x="1070" y="534" fill="#4ade80" font-size="32" font-weight="800">64</text>
    <text x="980" y="820" fill="#c4b094" font-size="24" font-weight="700">Margin</text>
    <text x="980" y="854" fill="#4ade80" font-size="32" font-weight="800">74</text>
    <text x="556" y="820" fill="#c4b094" font-size="24" font-weight="700">Video</text>
    <text x="556" y="854" fill="#4ade80" font-size="32" font-weight="800">88</text>
    <text x="466" y="500" fill="#c4b094" font-size="24" font-weight="700">Risk</text>
    <text x="466" y="534" fill="#4ade80" font-size="32" font-weight="800">90</text>
  </g>
</svg>
